<?xml version="1.0" encoding="utf-8"?>
<svg version="1.1" xmlns:xlink="http://www.w3.org/1999/xlink" width="30px" height="30px" xmlns="http://www.w3.org/2000/svg">
  <g transform="matrix(1 0 0 1 -952 -96 )">
    <path d="M 28.9903846153846 10.7561436672968  C 29.6634615384615 10.8695652173913  30 11.1594202898551  30 11.6257088846881  C 30 11.9029615626969  29.84375 12.2054190296156  29.53125 12.5330812854442  L 22.9867788461538 19.2249527410208  L 24.5372596153846 28.6767485822306  C 24.5492788461538 28.7649653434153  24.5552884615385 28.8909892879647  24.5552884615385 29.054820415879  C 24.5552884615385 29.3194706994329  24.4921875 29.5431632010082  24.3659855769231 29.7258979206049  C 24.2397836538462 29.9086326402016  24.0564903846154 30  23.8161057692308 30  C 23.5877403846154 30  23.3473557692308 29.9243856332703  23.0949519230769 29.773156899811  L 15 25.3119092627599  L 6.90504807692308 29.773156899811  C 6.640625 29.9243856332703  6.40024038461538 30  6.18389423076923 30  C 5.93149038461538 30  5.7421875 29.9086326402016  5.61598557692308 29.7258979206049  C 5.48978365384615 29.5431632010082  5.42668269230769 29.3194706994329  5.42668269230769 29.054820415879  C 5.42668269230769 28.9792060491493  5.43870192307692 28.8531821045999  5.46274038461538 28.6767485822306  L 7.01322115384615 19.2249527410208  L 0.450721153846154 12.5330812854442  C 0.150240384615385 12.1928166351607  0 11.890359168242  0 11.6257088846881  C 0 11.1594202898551  0.336538461538462 10.8695652173913  1.00961538461538 10.7561436672968  L 10.0600961538462 9.37618147448015  L 14.1165865384615 0.775047258979205  C 14.3449519230769 0.2583490863264  14.6394230769231 0  15 0  C 15.3605769230769 0  15.6550480769231 0.2583490863264  15.8834134615385 0.775047258979205  L 19.9399038461538 9.37618147448015  L 28.9903846153846 10.7561436672968  Z " fill-rule="nonzero" fill="#bd00ff" stroke="none" transform="matrix(1 0 0 1 952 96 )" />
  </g>
</svg>