<?xml version="1.0" encoding="utf-8"?>
<svg version="1.1" xmlns:xlink="http://www.w3.org/1999/xlink" width="21px" height="34px" xmlns="http://www.w3.org/2000/svg">
  <g transform="matrix(1 0 0 1 -148 -2022 )">
    <path d="M 20.639175257732 2.0440881763527  C 20.8797250859107 2.27120908483634  21 2.53239812959251  21 2.82765531062124  C 21 3.12291249164997  20.8797250859107 3.38410153640614  20.639175257732 3.61122244488978  L 6.45876288659794 17  L 20.639175257732 30.3887775551102  C 20.8797250859107 30.6158984635939  21 30.87708750835  21 31.1723446893788  C 21 31.4676018704075  20.8797250859107 31.7287909151637  20.639175257732 31.9559118236473  L 18.8350515463918 33.6593186372746  C 18.5945017182131 33.8864395457582  18.3178694158076 34  18.0051546391753 34  C 17.692439862543 34  17.4158075601375 33.8864395457582  17.1752577319588 33.6593186372746  L 0.360824742268041 17.7835671342685  C 0.120274914089347 17.5564462257849  0 17.2952571810287  0 17  C 0 16.7047428189713  0.120274914089347 16.4435537742151  0.360824742268041 16.2164328657315  L 17.1752577319588 0.340681362725451  C 17.4158075601375 0.113560454241816  17.692439862543 0  18.0051546391753 0  C 18.3178694158076 0  18.5945017182131 0.113560454241816  18.8350515463918 0.340681362725451  L 20.639175257732 2.0440881763527  Z " fill-rule="nonzero" fill="#ffffff" stroke="none" transform="matrix(1 0 0 1 148 2022 )" />
  </g>
</svg>