<?xml version="1.0" encoding="utf-8"?>
<svg version="1.1" xmlns:xlink="http://www.w3.org/1999/xlink" width="21px" height="34px" xmlns="http://www.w3.org/2000/svg">
  <g transform="matrix(1 0 0 1 -1109 -2022 )">
    <path d="M 20.639175257732 16.2164328657315  C 20.8797250859107 16.4435537742151  21 16.7047428189713  21 17  C 21 17.2952571810287  20.8797250859107 17.5564462257849  20.639175257732 17.7835671342685  L 3.82474226804124 33.6593186372746  C 3.58419243986254 33.8864395457582  3.30756013745704 34  2.99484536082474 34  C 2.68213058419244 34  2.40549828178694 33.8864395457582  2.16494845360825 33.6593186372746  L 0.360824742268041 31.9559118236473  C 0.120274914089347 31.7287909151637  0 31.4676018704075  0 31.1723446893788  C 0 30.87708750835  0.120274914089347 30.6158984635939  0.360824742268041 30.3887775551102  L 14.5412371134021 17  L 0.360824742268041 3.61122244488978  C 0.120274914089347 3.38410153640614  0 3.12291249164997  0 2.82765531062124  C 0 2.53239812959251  0.120274914089347 2.27120908483634  0.360824742268041 2.0440881763527  L 2.16494845360825 0.340681362725451  C 2.40549828178694 0.113560454241816  2.68213058419244 0  2.99484536082474 0  C 3.30756013745704 0  3.58419243986254 0.113560454241816  3.82474226804124 0.340681362725451  L 20.639175257732 16.2164328657315  Z " fill-rule="nonzero" fill="#ffffff" stroke="none" transform="matrix(1 0 0 1 1109 2022 )" />
  </g>
</svg>