<?xml version="1.0" encoding="utf-8"?>
<svg version="1.1" xmlns:xlink="http://www.w3.org/1999/xlink" width="190px" height="266px" xmlns="http://www.w3.org/2000/svg">
  <defs>
    <filter x="569px" y="163px" width="190px" height="266px" filterUnits="userSpaceOnUse" id="filter85">
      <feOffset dx="5" dy="5" in="SourceAlpha" result="shadowOffsetInner" />
      <feGaussianBlur stdDeviation="2.5" in="shadowOffsetInner" result="shadowGaussian" />
      <feComposite in2="shadowGaussian" operator="atop" in="SourceAlpha" result="shadowComposite" />
      <feColorMatrix type="matrix" values="0 0 0 0 0  0 0 0 0 0  0 0 0 0 0  0 0 0 0.349019607843137 0  " in="shadowComposite" />
    </filter>
    <g id="widget86">
      <path d="M 569.5 253  A 89.5 89.5 0 0 1 659 163.5 A 89.5 89.5 0 0 1 748.5 253 L 748.5 329  A 89.5 89.5 0 0 1 659 418.5 A 89.5 89.5 0 0 1 569.5 329 L 569.5 253  Z " fill-rule="nonzero" fill="#556dea" stroke="none" fill-opacity="0.980392156862745" />
      <path d="M 569.5 253  A 89.5 89.5 0 0 1 659 163.5 A 89.5 89.5 0 0 1 748.5 253 L 748.5 329  A 89.5 89.5 0 0 1 659 418.5 A 89.5 89.5 0 0 1 569.5 329 L 569.5 253  Z " stroke-width="1" stroke="#797979" fill="none" />
    </g>
  </defs>
  <g transform="matrix(1 0 0 1 -569 -163 )">
    <use xlink:href="#widget86" filter="url(#filter85)" />
    <use xlink:href="#widget86" />
  </g>
</svg>