<?xml version="1.0" encoding="utf-8"?>
<svg version="1.1" xmlns:xlink="http://www.w3.org/1999/xlink" width="190px" height="266px" xmlns="http://www.w3.org/2000/svg">
  <defs>
    <filter x="941px" y="163px" width="190px" height="266px" filterUnits="userSpaceOnUse" id="filter87">
      <feOffset dx="5" dy="5" in="SourceAlpha" result="shadowOffsetInner" />
      <feGaussianBlur stdDeviation="2.5" in="shadowOffsetInner" result="shadowGaussian" />
      <feComposite in2="shadowGaussian" operator="atop" in="SourceAlpha" result="shadowComposite" />
      <feColorMatrix type="matrix" values="0 0 0 0 0  0 0 0 0 0  0 0 0 0 0  0 0 0 0.349019607843137 0  " in="shadowComposite" />
    </filter>
    <g id="widget88">
      <path d="M 941.5 253  A 89.5 89.5 0 0 1 1031 163.5 A 89.5 89.5 0 0 1 1120.5 253 L 1120.5 329  A 89.5 89.5 0 0 1 1031 418.5 A 89.5 89.5 0 0 1 941.5 329 L 941.5 253  Z " fill-rule="nonzero" fill="#56abfc" stroke="none" fill-opacity="0.776470588235294" />
      <path d="M 941.5 253  A 89.5 89.5 0 0 1 1031 163.5 A 89.5 89.5 0 0 1 1120.5 253 L 1120.5 329  A 89.5 89.5 0 0 1 1031 418.5 A 89.5 89.5 0 0 1 941.5 329 L 941.5 253  Z " stroke-width="1" stroke="#797979" fill="none" />
    </g>
  </defs>
  <g transform="matrix(1 0 0 1 -941 -163 )">
    <use xlink:href="#widget88" filter="url(#filter87)" />
    <use xlink:href="#widget88" />
  </g>
</svg>