<?xml version="1.0" encoding="utf-8"?>
<svg version="1.1" xmlns:xlink="http://www.w3.org/1999/xlink" width="106px" height="36px" xmlns="http://www.w3.org/2000/svg">
  <g transform="matrix(1 0 0 1 -186 -443 )">
    <path d="M 188 461  A 16 16 0 0 1 204 445 L 274 445  A 16 16 0 0 1 290 461 A 16 16 0 0 1 274 477 L 204 477  A 16 16 0 0 1 188 461 Z " fill-rule="nonzero" fill="#56abfc" stroke="none" fill-opacity="0.776470588235294" />
    <path d="M 187 461  A 17 17 0 0 1 204 444 L 274 444  A 17 17 0 0 1 291 461 A 17 17 0 0 1 274 478 L 204 478  A 17 17 0 0 1 187 461 Z " stroke-width="2" stroke="#56abfc" fill="none" stroke-opacity="0.776470588235294" />
  </g>
</svg>