<?xml version="1.0" encoding="utf-8"?>
<svg version="1.1" xmlns:xlink="http://www.w3.org/1999/xlink" width="195px" height="266px" xmlns="http://www.w3.org/2000/svg">
  <defs>
    <filter x="960px" y="163px" width="195px" height="266px" filterUnits="userSpaceOnUse" id="filter91">
      <feOffset dx="5" dy="5" in="SourceAlpha" result="shadowOffsetInner" />
      <feGaussianBlur stdDeviation="2.5" in="shadowOffsetInner" result="shadowGaussian" />
      <feComposite in2="shadowGaussian" operator="atop" in="SourceAlpha" result="shadowComposite" />
      <feColorMatrix type="matrix" values="0 0 0 0 0  0 0 0 0 0  0 0 0 0 0  0 0 0 0.349019607843137 0  " in="shadowComposite" />
    </filter>
    <g id="widget92">
      <path d="M 960.5 255.5  A 92 92 0 0 1 1052.5 163.5 A 92 92 0 0 1 1144.5 255.5 L 1144.5 326.5  A 92 92 0 0 1 1052.5 418.5 A 92 92 0 0 1 960.5 326.5 L 960.5 255.5  Z " fill-rule="nonzero" fill="#56abfc" stroke="none" fill-opacity="0.776470588235294" />
      <path d="M 960.5 255.5  A 92 92 0 0 1 1052.5 163.5 A 92 92 0 0 1 1144.5 255.5 L 1144.5 326.5  A 92 92 0 0 1 1052.5 418.5 A 92 92 0 0 1 960.5 326.5 L 960.5 255.5  Z " stroke-width="1" stroke="#797979" fill="none" />
    </g>
  </defs>
  <g transform="matrix(1 0 0 1 -960 -163 )">
    <use xlink:href="#widget92" filter="url(#filter91)" />
    <use xlink:href="#widget92" />
  </g>
</svg>