<?xml version="1.0" encoding="utf-8"?>
<svg version="1.1" xmlns:xlink="http://www.w3.org/1999/xlink" width="112px" height="36px" xmlns="http://www.w3.org/2000/svg">
  <g transform="matrix(1 0 0 1 -172 -443 )">
    <path d="M 174 461  A 16 16 0 0 1 190 445 L 266 445  A 16 16 0 0 1 282 461 A 16 16 0 0 1 266 477 L 190 477  A 16 16 0 0 1 174 461 Z " fill-rule="nonzero" fill="#56abfc" stroke="none" fill-opacity="0.776470588235294" />
    <path d="M 173 461  A 17 17 0 0 1 190 444 L 266 444  A 17 17 0 0 1 283 461 A 17 17 0 0 1 266 478 L 190 478  A 17 17 0 0 1 173 461 Z " stroke-width="2" stroke="#56abfc" fill="none" stroke-opacity="0.776470588235294" />
  </g>
</svg>