<?xml version="1.0" encoding="utf-8"?>
<svg version="1.1" xmlns:xlink="http://www.w3.org/1999/xlink" width="205px" height="266px" xmlns="http://www.w3.org/2000/svg">
  <defs>
    <filter x="586px" y="163px" width="205px" height="266px" filterUnits="userSpaceOnUse" id="filter93">
      <feOffset dx="5" dy="5" in="SourceAlpha" result="shadowOffsetInner" />
      <feGaussianBlur stdDeviation="2.5" in="shadowOffsetInner" result="shadowGaussian" />
      <feComposite in2="shadowGaussian" operator="atop" in="SourceAlpha" result="shadowComposite" />
      <feColorMatrix type="matrix" values="0 0 0 0 0  0 0 0 0 0  0 0 0 0 0  0 0 0 0.349019607843137 0  " in="shadowComposite" />
    </filter>
    <g id="widget94">
      <path d="M 586.5 260.5  A 97 97 0 0 1 683.5 163.5 A 97 97 0 0 1 780.5 260.5 L 780.5 321.5  A 97 97 0 0 1 683.5 418.5 A 97 97 0 0 1 586.5 321.5 L 586.5 260.5  Z " fill-rule="nonzero" fill="#556dea" stroke="none" fill-opacity="0.980392156862745" />
      <path d="M 586.5 260.5  A 97 97 0 0 1 683.5 163.5 A 97 97 0 0 1 780.5 260.5 L 780.5 321.5  A 97 97 0 0 1 683.5 418.5 A 97 97 0 0 1 586.5 321.5 L 586.5 260.5  Z " stroke-width="1" stroke="#797979" fill="none" />
    </g>
  </defs>
  <g transform="matrix(1 0 0 1 -586 -163 )">
    <use xlink:href="#widget94" filter="url(#filter93)" />
    <use xlink:href="#widget94" />
  </g>
</svg>