<?xml version="1.0" encoding="utf-8"?>
<svg version="1.1" xmlns:xlink="http://www.w3.org/1999/xlink" width="282px" height="54px" xmlns="http://www.w3.org/2000/svg">
  <g transform="matrix(1 0 0 1 -498 -63 )">
    <path d="M 499.5 99.3  C 499.5 99.3  499.5 64.5  499.5 64.5  C 499.5 64.5  778.5 64.5  778.5 64.5  C 778.5 64.5  778.5 99.3  778.5 99.3  C 778.5 99.3  695.229876411226 99.3  695.229876411226 99.3  C 695.229876411226 99.3  624.9 115.46090777109  624.9 115.46090777109  C 624.9 115.46090777109  554.570123588775 99.3  554.570123588775 99.3  C 554.570123588775 99.3  499.5 99.3  499.5 99.3  Z " fill-rule="nonzero" fill="#ffffff" stroke="none" />
    <path d="M 498 100.8  C 498 100.8  498 63  498 63  C 498 63  780 63  780 63  C 780 63  780 100.8  780 100.8  C 780 100.8  695.4 100.8  695.4 100.8  C 695.4 100.8  624.9 117  624.9 117  C 624.9 117  554.4 100.8  554.4 100.8  C 554.4 100.8  498 100.8  498 100.8  Z M 500 98.8  C 500 98.8  554.626831451703 98.8  554.626831451703 98.8  C 554.626831451703 98.8  624.9 114.94787702812  624.9 114.94787702812  C 624.9 114.94787702812  695.173168548302 98.8  695.173168548302 98.8  C 695.173168548302 98.8  778 98.8  778 98.8  C 778 98.8  778 65  778 65  C 778 65  500 65  500 65  C 500 65  500 98.8  500 98.8  Z " fill-rule="nonzero" fill="#06a3ff" stroke="none" />
  </g>
</svg>