<?xml version="1.0" encoding="utf-8"?>
<svg version="1.1" xmlns:xlink="http://www.w3.org/1999/xlink" width="15px" height="15px" xmlns="http://www.w3.org/2000/svg">
  <g transform="matrix(1 0 0 1 -320 -608 )">
    <path d="M 327.5 608  C 331.7 608  335 611.3  335 615.5  C 335 619.7  331.7 623  327.5 623  C 323.3 623  320 619.7  320 615.5  C 320 611.3  323.3 608  327.5 608  Z " fill-rule="nonzero" fill="#75c0ff" stroke="none" />
    <path d="M 327.5 608.5  C 331.42 608.5  334.5 611.58  334.5 615.5  C 334.5 619.42  331.42 622.5  327.5 622.5  C 323.58 622.5  320.5 619.42  320.5 615.5  C 320.5 611.58  323.58 608.5  327.5 608.5  Z " stroke-width="1" stroke="#75c0ff" fill="none" />
  </g>
</svg>