<?xml version="1.0" encoding="utf-8"?>
<svg version="1.1" xmlns:xlink="http://www.w3.org/1999/xlink" width="743px" height="275px" xmlns="http://www.w3.org/2000/svg">
  <defs>
    <mask fill="white" id="clip114">
      <path d="M 0 275  L 0 96.4830508474568  L 0 91.8220338983042  L 0 0  L 743 0  L 743 275  L 0 275  Z " fill-rule="evenodd" />
    </mask>
  </defs>
  <g transform="matrix(1 0 0 1 -370 -666 )">
    <path d="M 0 275  L 0 96.4830508474568  L 0 91.8220338983042  L 0 0  L 743 0  L 743 275  L 0 275  Z " fill-rule="nonzero" fill="#ffffff" stroke="none" transform="matrix(1 0 0 1 370 666 )" />
    <path d="M 0 275  L 0 96.4830508474568  L 0 91.8220338983042  L 0 0  L 743 0  L 743 275  L 0 275  Z " stroke-width="30" stroke="#0085ff" fill="none" transform="matrix(1 0 0 1 370 666 )" mask="url(#clip114)" />
  </g>
</svg>