<?xml version="1.0" encoding="utf-8"?>
<svg version="1.1" xmlns:xlink="http://www.w3.org/1999/xlink" width="22px" height="22px" xmlns="http://www.w3.org/2000/svg">
  <g transform="matrix(1 0 0 1 -260 -496 )">
    <path d="M 271 496  C 277.16 496  282 500.84  282 507  C 282 513.16  277.16 518  271 518  C 264.84 518  260 513.16  260 507  C 260 500.84  264.84 496  271 496  Z " fill-rule="nonzero" fill="#75c0ff" stroke="none" />
    <path d="M 271 496.5  C 276.88 496.5  281.5 501.12  281.5 507  C 281.5 512.88  276.88 517.5  271 517.5  C 265.12 517.5  260.5 512.88  260.5 507  C 260.5 501.12  265.12 496.5  271 496.5  Z " stroke-width="1" stroke="#75c0ff" fill="none" />
  </g>
</svg>