<?xml version="1.0" encoding="utf-8"?>
<svg version="1.1" xmlns:xlink="http://www.w3.org/1999/xlink" width="743px" height="188px" xmlns="http://www.w3.org/2000/svg">
  <defs>
    <mask fill="white" id="clip115">
      <path d="M 0 188  L 0 65.9593220338977  L 0 62.7728813559316  L 0 0  L 743 0  L 743 188  L 0 188  Z " fill-rule="evenodd" />
    </mask>
  </defs>
  <g transform="matrix(1 0 0 1 -94 -1046 )">
    <path d="M 0 188  L 0 65.9593220338977  L 0 62.7728813559316  L 0 0  L 743 0  L 743 188  L 0 188  Z " fill-rule="nonzero" fill="#ffffff" stroke="none" transform="matrix(1 0 0 1 94 1046 )" />
    <path d="M 0 188  L 0 65.9593220338977  L 0 62.7728813559316  L 0 0  L 743 0  L 743 188  L 0 188  Z " stroke-width="30" stroke="#0085ff" fill="none" transform="matrix(1 0 0 1 94 1046 )" mask="url(#clip115)" />
  </g>
</svg>