<?xml version="1.0" encoding="utf-8"?>
<svg version="1.1" xmlns:xlink="http://www.w3.org/1999/xlink" width="743px" height="242px" xmlns="http://www.w3.org/2000/svg">
  <defs>
    <mask fill="white" id="clip116">
      <path d="M 0 242  L 0 84.905084745762  L 0 80.8033898305077  L 0 0  L 743 0  L 743 242  L 0 242  Z " fill-rule="evenodd" />
    </mask>
  </defs>
  <g transform="matrix(1 0 0 1 -370 -1345 )">
    <path d="M 0 242  L 0 84.905084745762  L 0 80.8033898305077  L 0 0  L 743 0  L 743 242  L 0 242  Z " fill-rule="nonzero" fill="#ffffff" stroke="none" transform="matrix(1 0 0 1 370 1345 )" />
    <path d="M 0 242  L 0 84.905084745762  L 0 80.8033898305077  L 0 0  L 743 0  L 743 242  L 0 242  Z " stroke-width="30" stroke="#0085ff" fill="none" transform="matrix(1 0 0 1 370 1345 )" mask="url(#clip116)" />
  </g>
</svg>