<?xml version="1.0" encoding="utf-8"?>
<svg version="1.1" xmlns:xlink="http://www.w3.org/1999/xlink" width="743px" height="144px" xmlns="http://www.w3.org/2000/svg">
  <defs>
    <mask fill="white" id="clip118">
      <path d="M 0 144  L 0 50.5220338983046  L 0 48.0813559322029  L 0 0  L 743 0  L 743 144  L 0 144  Z " fill-rule="evenodd" />
    </mask>
  </defs>
  <g transform="matrix(1 0 0 1 -370 -1993 )">
    <path d="M 0 144  L 0 50.5220338983046  L 0 48.0813559322029  L 0 0  L 743 0  L 743 144  L 0 144  Z " fill-rule="nonzero" fill="#ffffff" stroke="none" transform="matrix(1 0 0 1 370 1993 )" />
    <path d="M 0 144  L 0 50.5220338983046  L 0 48.0813559322029  L 0 0  L 743 0  L 743 144  L 0 144  Z " stroke-width="30" stroke="#0085ff" fill="none" transform="matrix(1 0 0 1 370 1993 )" mask="url(#clip118)" />
  </g>
</svg>