<?xml version="1.0" encoding="utf-8"?>
<svg version="1.1" xmlns:xlink="http://www.w3.org/1999/xlink" width="38px" height="21px" xmlns="http://www.w3.org/2000/svg">
  <g transform="matrix(1 0 0 1 -976 -449 )">
    <path d="M 22.5010351966874 10.0160320641283  C 22.7632850241546 10.1563126252505  22.8944099378882 10.3176352705411  22.8944099378882 10.5  C 22.8944099378882 10.6823647294589  22.7632850241546 10.8436873747495  22.5010351966874 10.9839679358717  L 4.16977225672878 20.7895791583166  C 3.90752242926156 20.9298597194389  3.60593512767426 21  3.26501035196687 21  C 2.92408557625949 21  2.62249827467219 20.9298597194389  2.36024844720497 20.7895791583166  L 0.393374741200828 19.7374749498998  C 0.131124913733609 19.5971943887776  0 19.435871743487  0 19.2535070140281  C 0 19.0711422845691  0.131124913733609 18.9098196392786  0.393374741200828 18.7695390781563  L 15.8530020703934 10.5  L 0.393374741200828 2.23046092184369  C 0.131124913733609 2.09018036072144  0 1.92885771543086  0 1.74649298597194  C 0 1.56412825651302  0.131124913733609 1.40280561122244  0.393374741200828 1.2625250501002  L 2.36024844720497 0.210420841683367  C 2.62249827467219 0.0701402805611215  2.92408557625949 0  3.26501035196687 0  C 3.60593512767426 0  3.90752242926156 0.0701402805611215  4.16977225672878 0.210420841683367  L 22.5010351966874 10.0160320641283  Z M 37.6066252587992 10.0160320641283  C 37.8688750862664 10.1563126252505  38 10.3176352705411  38 10.5  C 38 10.6823647294589  37.8688750862664 10.8436873747495  37.6066252587992 10.9839679358717  L 19.2753623188406 20.7895791583166  C 19.0131124913734 20.9298597194389  18.7115251897861 21  18.3706004140787 21  C 18.0296756383713 21  17.728088336784 20.9298597194389  17.4658385093168 20.7895791583166  L 15.4989648033126 19.7374749498998  C 15.2367149758454 19.5971943887776  15.1055900621118 19.435871743487  15.1055900621118 19.2535070140281  C 15.1055900621118 19.0711422845691  15.2367149758454 18.9098196392786  15.4989648033126 18.7695390781563  L 30.9585921325052 10.5  L 15.4989648033126 2.23046092184369  C 15.2367149758454 2.09018036072144  15.1055900621118 1.92885771543086  15.1055900621118 1.74649298597194  C 15.1055900621118 1.56412825651302  15.2367149758454 1.40280561122244  15.4989648033126 1.2625250501002  L 17.4658385093168 0.210420841683367  C 17.728088336784 0.0701402805611215  18.0296756383713 0  18.3706004140787 0  C 18.7115251897861 0  19.0131124913734 0.0701402805611215  19.2753623188406 0.210420841683367  L 37.6066252587992 10.0160320641283  Z " fill-rule="nonzero" fill="#333333" stroke="none" fill-opacity="0.996078431372549" transform="matrix(1 0 0 1 976 449 )" />
  </g>
</svg>