<?xml version="1.0" encoding="utf-8"?>
<svg version="1.1" xmlns:xlink="http://www.w3.org/1999/xlink" width="32px" height="19px" xmlns="http://www.w3.org/2000/svg">
  <g transform="matrix(1 0 0 1 -498 -381 )">
    <path d="M 23.7589285714286 14.8849826388889  C 26.1458333333333 13.5490451388889  28.1309523809524 11.7540509259259  29.7142857142857 9.5  C 27.9047619047619 6.90509259259259  25.6369047619048 4.96440972222222  22.9107142857143 3.67795138888889  C 23.6369047619048 4.8214699074074  24 6.05844907407407  24 7.38888888888889  C 24 9.4230324074074  23.2172619047619 11.1630497685185  21.6517857142857 12.6089409722222  C 20.0863095238095 14.0548321759259  18.202380952381 14.7777777777778  16 14.7777777777778  C 13.797619047619 14.7777777777778  11.9136904761905 14.0548321759259  10.3482142857143 12.6089409722222  C 8.7827380952381 11.1630497685185  8 9.4230324074074  8 7.38888888888889  C 8 6.05844907407407  8.36309523809524 4.8214699074074  9.08928571428571 3.67795138888889  C 6.36309523809524 4.96440972222222  4.0952380952381 6.90509259259259  2.28571428571429 9.5  C 3.86904761904762 11.7540509259259  5.85416666666667 13.5490451388889  8.24107142857143 14.8849826388889  C 10.6279761904762 16.2209201388889  13.2142857142857 16.8888888888889  16 16.8888888888889  C 18.7857142857143 16.8888888888889  21.3720238095238 16.2209201388889  23.7589285714286 14.8849826388889  Z M 16.6071428571429 3.72743055555556  C 16.7738095238095 3.57349537037037  16.8571428571429 3.38657407407407  16.8571428571429 3.16666666666667  C 16.8571428571429 2.94675925925926  16.7738095238095 2.75983796296296  16.6071428571429 2.60590277777778  C 16.4404761904762 2.45196759259259  16.2380952380952 2.375  16 2.375  C 14.5119047619048 2.375  13.235119047619 2.86704282407407  12.1696428571429 3.85112847222222  C 11.1041666666667 4.83521412037037  10.5714285714286 6.01446759259259  10.5714285714286 7.38888888888889  C 10.5714285714286 7.60879629629629  10.6547619047619 7.79571759259259  10.8214285714286 7.94965277777778  C 10.9880952380952 8.10358796296296  11.1904761904762 8.18055555555556  11.4285714285714 8.18055555555556  C 11.6666666666667 8.18055555555556  11.8690476190476 8.10358796296296  12.0357142857143 7.94965277777778  C 12.202380952381 7.79571759259259  12.2857142857143 7.60879629629629  12.2857142857143 7.38888888888889  C 12.2857142857143 6.44328703703704  12.6488095238095 5.63512731481481  13.375 4.96440972222222  C 14.1011904761905 4.29369212962963  14.9761904761905 3.95833333333333  16 3.95833333333333  C 16.2380952380952 3.95833333333333  16.4404761904762 3.88136574074074  16.6071428571429 3.72743055555556  Z M 31.6428571428571 8.36197916666667  C 31.8809523809524 8.74681712962963  32 9.1261574074074  32 9.5  C 32 9.87384259259259  31.8809523809524 10.2531828703704  31.6428571428571 10.6380208333333  C 29.9761904761905 13.1669560185185  27.7351190476191 15.1928530092593  24.9196428571429 16.7157118055556  C 22.1041666666667 18.2385706018519  19.1309523809524 19  16 19  C 12.8690476190476 19  9.89583333333333 18.2358217592593  7.08035714285714 16.7074652777778  C 4.26488095238095 15.1791087962963  2.02380952380952 13.1559606481481  0.357142857142857 10.6380208333333  C 0.119047619047619 10.2531828703704  0 9.87384259259259  0 9.5  C 0 9.1261574074074  0.119047619047619 8.74681712962963  0.357142857142857 8.36197916666667  C 2.02380952380952 5.84403935185185  4.26488095238095 3.8208912037037  7.08035714285714 2.29253472222222  C 9.89583333333333 0.764178240740739  12.8690476190476 0  16 0  C 19.1309523809524 0  22.1041666666667 0.764178240740739  24.9196428571429 2.29253472222222  C 27.7351190476191 3.8208912037037  29.9761904761905 5.84403935185185  31.6428571428571 8.36197916666667  Z " fill-rule="nonzero" fill="#ffffff" stroke="none" transform="matrix(1 0 0 1 498 381 )" />
  </g>
</svg>