<?xml version="1.0" encoding="utf-8"?>
<svg version="1.1" xmlns:xlink="http://www.w3.org/1999/xlink" width="30px" height="24px" xmlns="http://www.w3.org/2000/svg">
  <g transform="matrix(1 0 0 1 -638 -376 )">
    <path d="M 10.0864955357143 8.5859375  C 10.5050223214286 8.9765625  10.7142857142857 9.44791666666667  10.7142857142857 10  C 10.7142857142857 10.5520833333333  10.5050223214286 11.0234375  10.0864955357143 11.4140625  C 9.66796875 11.8046875  9.16294642857143 12  8.57142857142857 12  C 7.97991071428572 12  7.47488839285714 11.8046875  7.05636160714286 11.4140625  C 6.63783482142857 11.0234375  6.42857142857143 10.5520833333333  6.42857142857143 10  C 6.42857142857143 9.44791666666667  6.63783482142857 8.9765625  7.05636160714286 8.5859375  C 7.47488839285714 8.1953125  7.97991071428572 8  8.57142857142857 8  C 9.16294642857143 8  9.66796875 8.1953125  10.0864955357143 8.5859375  Z M 16.5150669642857 8.5859375  C 16.93359375 8.9765625  17.1428571428571 9.44791666666667  17.1428571428571 10  C 17.1428571428571 10.5520833333333  16.93359375 11.0234375  16.5150669642857 11.4140625  C 16.0965401785714 11.8046875  15.5915178571429 12  15 12  C 14.4084821428571 12  13.9034598214286 11.8046875  13.4849330357143 11.4140625  C 13.06640625 11.0234375  12.8571428571429 10.5520833333333  12.8571428571429 10  C 12.8571428571429 9.44791666666667  13.06640625 8.9765625  13.4849330357143 8.5859375  C 13.9034598214286 8.1953125  14.4084821428571 8  15 8  C 15.5915178571429 8  16.0965401785714 8.1953125  16.5150669642857 8.5859375  Z M 22.9436383928571 8.5859375  C 23.3621651785714 8.9765625  23.5714285714286 9.44791666666667  23.5714285714286 10  C 23.5714285714286 10.5520833333333  23.3621651785714 11.0234375  22.9436383928571 11.4140625  C 22.5251116071429 11.8046875  22.0200892857143 12  21.4285714285714 12  C 20.8370535714286 12  20.33203125 11.8046875  19.9135044642857 11.4140625  C 19.4949776785714 11.0234375  19.2857142857143 10.5520833333333  19.2857142857143 10  C 19.2857142857143 9.44791666666667  19.4949776785714 8.9765625  19.9135044642857 8.5859375  C 20.33203125 8.1953125  20.8370535714286 8  21.4285714285714 8  C 22.0200892857143 8  22.5251116071429 8.1953125  22.9436383928571 8.5859375  Z M 21.38671875 3.0859375  C 19.4056919642857 2.36197916666667  17.2767857142857 2  15 2  C 12.7232142857143 2  10.5943080357143 2.36197916666667  8.61328125 3.0859375  C 6.63225446428571 3.80989583333333  5.05859375 4.78645833333333  3.89229910714286 6.015625  C 2.72600446428571 7.24479166666666  2.14285714285714 8.57291666666666  2.14285714285714 10  C 2.14285714285714 11.1666666666667  2.54185267857143 12.2786458333333  3.33984375 13.3359375  C 4.13783482142857 14.3932291666667  5.26227678571429 15.3072916666667  6.71316964285714 16.078125  L 8.16964285714286 16.859375  L 7.71763392857143 18.359375  C 7.44977678571429 19.3072916666667  7.05915178571429 20.203125  6.54575892857143 21.046875  C 8.2421875 20.390625  9.77678571428572 19.5  11.1495535714286 18.375  L 11.8694196428571 17.78125  L 12.8236607142857 17.875  C 13.59375 17.9583333333333  14.3191964285714 18  15 18  C 17.2767857142857 18  19.4056919642857 17.6380208333333  21.38671875 16.9140625  C 23.3677455357143 16.1901041666667  24.94140625 15.2135416666667  26.1077008928571 13.984375  C 27.2739955357143 12.7552083333333  27.8571428571429 11.4270833333333  27.8571428571429 10  C 27.8571428571429 8.57291666666666  27.2739955357143 7.24479166666666  26.1077008928571 6.015625  C 24.94140625 4.78645833333333  23.3677455357143 3.80989583333333  21.38671875 3.0859375  Z M 28.8113839285714 6.1171875  C 29.6037946428571 7.3515625  30 8.64583333333333  30 10  C 30 11.8125  29.3303571428571 13.4869791666667  27.9910714285714 15.0234375  C 26.6517857142857 16.5598958333333  24.8325892857143 17.7734375  22.5334821428571 18.6640625  C 20.234375 19.5546875  17.7232142857143 20  15 20  C 14.21875 20  13.4095982142857 19.9583333333333  12.5725446428571 19.875  C 10.3627232142857 21.6979166666667  7.79575892857143 22.9583333333333  4.87165178571429 23.65625  C 4.32477678571429 23.8020833333333  3.68861607142857 23.9166666666667  2.96316964285714 24  L 2.87946428571429 24  C 2.71205357142857 24  2.56138392857143 23.9453125  2.42745535714286 23.8359375  C 2.29352678571429 23.7265625  2.20424107142857 23.5833333333333  2.15959821428571 23.40625  L 2.15959821428571 23.390625  C 2.12611607142857 23.3489583333333  2.12332589285714 23.2864583333333  2.15122767857143 23.203125  C 2.17912946428571 23.1197916666667  2.19029017857143 23.0677083333333  2.18470982142857 23.046875  C 2.17912946428571 23.0260416666667  2.20424107142857 22.9765625  2.26004464285714 22.8984375  L 2.36049107142857 22.7578125  C 2.36049107142857 22.7578125  2.39955357142857 22.7135416666667  2.47767857142857 22.625  C 2.55580357142857 22.5364583333333  2.60044642857143 22.4895833333333  2.61160714285714 22.484375  C 2.68973214285714 22.4010416666667  2.86272321428571 22.2213541666667  3.13058035714286 21.9453125  C 3.3984375 21.6692708333333  3.59095982142857 21.4713541666667  3.70814732142857 21.3515625  C 3.82533482142857 21.2317708333333  3.99832589285714 21.0260416666667  4.22712053571429 20.734375  C 4.45591517857143 20.4427083333333  4.63727678571429 20.1770833333333  4.77120535714286 19.9375  C 4.90513392857143 19.6979166666667  5.05580357142857 19.390625  5.22321428571429 19.015625  C 5.390625 18.640625  5.53571428571429 18.2447916666667  5.65848214285714 17.828125  C 3.90625 16.9010416666667  2.52511160714286 15.7552083333333  1.51506696428571 14.390625  C 0.505022321428571 13.0260416666667  0 11.5625  0 10  C 0 8.64583333333333  0.396205357142857 7.3515625  1.18861607142857 6.1171875  C 1.98102678571429 4.8828125  3.046875 3.81770833333333  4.38616071428571 2.921875  C 5.72544642857143 2.02604166666666  7.32142857142857 1.31510416666666  9.17410714285714 0.789062499999999  C 11.0267857142857 0.263020833333332  12.96875 0  15 0  C 17.03125 0  18.9732142857143 0.263020833333332  20.8258928571429 0.789062499999999  C 22.6785714285714 1.31510416666666  24.2745535714286 2.02604166666666  25.6138392857143 2.921875  C 26.953125 3.81770833333333  28.0189732142857 4.8828125  28.8113839285714 6.1171875  Z " fill-rule="nonzero" fill="#ffffff" stroke="none" transform="matrix(1 0 0 1 638 376 )" />
  </g>
</svg>