<?xml version="1.0" encoding="utf-8"?>
<svg version="1.1" xmlns:xlink="http://www.w3.org/1999/xlink" width="55px" height="65px" xmlns="http://www.w3.org/2000/svg">
  <defs>
    <filter x="652px" y="639px" width="55px" height="65px" filterUnits="userSpaceOnUse" id="filter224">
      <feOffset dx="1" dy="1" in="SourceAlpha" result="shadowOffsetInner" />
      <feGaussianBlur stdDeviation="2.5" in="shadowOffsetInner" result="shadowGaussian" />
      <feComposite in2="shadowGaussian" operator="atop" in="SourceAlpha" result="shadowComposite" />
      <feColorMatrix type="matrix" values="0 0 0 0 0  0 0 0 0 0  0 0 0 0 0  0 0 0 0.698039215686274 0  " in="shadowComposite" />
    </filter>
    <g id="widget225">
      <path d="M 678.5 697.091155469009  C 669.7 683.690711057852  656.5 675.650444411157  656.5 662.25  C 656.5 655.285714285714  660.9 643.5  678.5 643.5  C 696.1 643.5  700.5 655.285714285714  700.5 662.25  C 700.5 675.650444411157  687.3 683.690711057852  678.5 697.091155469009  Z " fill-rule="nonzero" fill="#ffffff" stroke="none" />
      <path d="M 678.5 698  C 669.5 684.25  656 676  656 662.25  C 656 655.1  660.5 643  678.5 643  C 696.5 643  701 655.1  701 662.25  C 701 676  687.5 684.25  678.5 698  Z M 678.5 696.182310938019  C 687.1 683.131422115704  700 675.300888822315  700 662.25  C 700 655.471428571429  695.7 644  678.5 644  C 661.3 644  657 655.471428571429  657 662.25  C 657 675.300888822315  669.9 683.131422115704  678.5 696.182310938019  Z " fill-rule="nonzero" fill="#ffffff" stroke="none" />
    </g>
  </defs>
  <g transform="matrix(1 0 0 1 -652 -639 )">
    <use xlink:href="#widget225" filter="url(#filter224)" />
    <use xlink:href="#widget225" />
  </g>
</svg>