<?xml version="1.0" encoding="utf-8"?>
<svg version="1.1" xmlns:xlink="http://www.w3.org/1999/xlink" width="23px" height="21px" xmlns="http://www.w3.org/2000/svg">
  <g transform="matrix(1 0 0 1 -952 -686 )">
    <path d="M 15.8125 0  L 22.0416666666667 0  C 22.3012152777778 0  22.5258246527778 0.0865885416666656  22.7154947916667 0.259765624999999  C 22.9051649305556 0.43294270833333  23 0.63802083333333  23 0.874999999999999  L 23 6.5625  C 23 6.69010416666667  22.955078125 6.794921875  22.865234375 6.876953125  C 22.775390625 6.958984375  22.6605902777778 7  22.5208333333333 7  L 21.5625 7  C 21.4227430555556 7  21.3079427083333 6.958984375  21.2180989583333 6.876953125  C 21.1282552083333 6.794921875  21.0833333333333 6.69010416666667  21.0833333333333 6.5625  L 21.0833333333333 2.98046875  L 15.36328125 8.216796875  C 16.62109375 9.638671875  17.25 11.2747395833333  17.25 13.125  C 17.25 14.19140625  17.0228949652778 15.2099609375  16.5686848958333 16.1806640625  C 16.1144748263889 17.1513671875  15.5005425347222 17.9899088541667  14.7268880208333 18.6962890625  C 13.9532335069444 19.4026692708333  13.0348307291667 19.9632161458333  11.9716796875 20.3779296875  C 10.9085286458333 20.7926432291667  9.79296875 21  8.625 21  C 7.45703125 21  6.34147135416667 20.7926432291667  5.2783203125 20.3779296875  C 4.21516927083333 19.9632161458333  3.29676649305556 19.4026692708333  2.52311197916667 18.6962890625  C 1.74945746527778 17.9899088541667  1.13552517361111 17.1513671875  0.681315104166667 16.1806640625  C 0.227105034722222 15.2099609375  0 14.19140625  0 13.125  C 0 12.05859375  0.227105034722222 11.0400390625  0.681315104166667 10.0693359375  C 1.13552517361111 9.0986328125  1.74945746527778 8.26009114583333  2.52311197916667 7.5537109375  C 3.29676649305556 6.84733072916667  4.21516927083333 6.28678385416667  5.2783203125 5.8720703125  C 6.34147135416667 5.45735677083333  7.45703125 5.25  8.625 5.25  C 10.6514756944444 5.25  12.443359375 5.82421875  14.0006510416667 6.97265625  L 19.720703125 1.75  L 15.8125 1.75  C 15.6727430555556 1.75  15.5579427083333 1.708984375  15.4680989583333 1.626953125  C 15.3782552083333 1.544921875  15.3333333333333 1.44010416666667  15.3333333333333 1.3125  L 15.3333333333333 0.437500000000001  C 15.3333333333333 0.30989583333333  15.3782552083333 0.205078125  15.4680989583333 0.123046875  C 15.5579427083333 0.041015625  15.6727430555556 0  15.8125 0  Z M 3.8857421875 17.4521484375  C 5.19845920138889 18.6507161458333  6.77821180555556 19.25  8.625 19.25  C 10.4717881944444 19.25  12.0515407986111 18.6507161458333  13.3642578125 17.4521484375  C 14.6769748263889 16.2535807291667  15.3333333333333 14.8111979166667  15.3333333333333 13.125  C 15.3333333333333 11.4388020833333  14.6769748263889 9.99641927083333  13.3642578125 8.7978515625  C 12.0515407986111 7.59928385416667  10.4717881944444 7  8.625 7  C 6.77821180555556 7  5.19845920138889 7.59928385416667  3.8857421875 8.7978515625  C 2.57302517361111 9.99641927083333  1.91666666666667 11.4388020833333  1.91666666666667 13.125  C 1.91666666666667 14.8111979166667  2.57302517361111 16.2535807291667  3.8857421875 17.4521484375  Z " fill-rule="nonzero" fill="#fefefe" stroke="none" fill-opacity="0.996078431372549" transform="matrix(1 0 0 1 952 686 )" />
  </g>
</svg>