<?xml version="1.0" encoding="utf-8"?>
<svg version="1.1" xmlns:xlink="http://www.w3.org/1999/xlink" width="30px" height="30px" xmlns="http://www.w3.org/2000/svg">
  <g transform="matrix(1 0 0 1 -18 -287 )">
    <path d="M 22.0703125 17.548828125  C 22.2265625 17.8548177083333  22.2526041666667 18.1705729166667  22.1484375 18.49609375  C 21.6666666666667 20.0716145833333  20.7682291666667 21.3411458333333  19.453125 22.3046875  C 18.1380208333333 23.2682291666667  16.6536458333333 23.75  15 23.75  C 13.3463541666667 23.75  11.8619791666667 23.2682291666667  10.546875 22.3046875  C 9.23177083333333 21.3411458333333  8.33333333333333 20.0716145833333  7.8515625 18.49609375  C 7.74739583333333 18.1705729166667  7.7734375 17.8548177083333  7.9296875 17.548828125  C 8.0859375 17.2428385416667  8.33333333333333 17.0377604166667  8.671875 16.93359375  C 8.99739583333333 16.8294270833333  9.31315104166667 16.85546875  9.619140625 17.01171875  C 9.92513020833334 17.16796875  10.1302083333333 17.4153645833333  10.234375 17.75390625  C 10.5598958333333 18.7955729166667  11.162109375 19.638671875  12.041015625 20.283203125  C 12.919921875 20.927734375  13.90625 21.25  15 21.25  C 16.09375 21.25  17.080078125 20.927734375  17.958984375 20.283203125  C 18.837890625 19.638671875  19.4401041666667 18.7955729166667  19.765625 17.75390625  C 19.8697916666667 17.4153645833333  20.078125 17.16796875  20.390625 17.01171875  C 20.703125 16.85546875  21.0221354166667 16.8294270833333  21.34765625 16.93359375  C 21.6731770833333 17.0377604166667  21.9140625 17.2428385416667  22.0703125 17.548828125  Z M 11.767578125 8.232421875  C 12.255859375 8.720703125  12.5 9.30989583333333  12.5 10  C 12.5 10.6901041666667  12.255859375 11.279296875  11.767578125 11.767578125  C 11.279296875 12.255859375  10.6901041666667 12.5  10 12.5  C 9.30989583333334 12.5  8.720703125 12.255859375  8.232421875 11.767578125  C 7.744140625 11.279296875  7.5 10.6901041666667  7.5 10  C 7.5 9.30989583333333  7.744140625 8.720703125  8.232421875 8.232421875  C 8.720703125 7.744140625  9.30989583333334 7.5  10 7.5  C 10.6901041666667 7.5  11.279296875 7.744140625  11.767578125 8.232421875  Z M 21.767578125 8.232421875  C 22.255859375 8.720703125  22.5 9.30989583333333  22.5 10  C 22.5 10.6901041666667  22.255859375 11.279296875  21.767578125 11.767578125  C 21.279296875 12.255859375  20.6901041666667 12.5  20 12.5  C 19.3098958333333 12.5  18.720703125 12.255859375  18.232421875 11.767578125  C 17.744140625 11.279296875  17.5 10.6901041666667  17.5 10  C 17.5 9.30989583333333  17.744140625 8.720703125  18.232421875 8.232421875  C 18.720703125 7.744140625  19.3098958333333 7.5  20 7.5  C 20.6901041666667 7.5  21.279296875 7.744140625  21.767578125 8.232421875  Z M 26.50390625 19.853515625  C 27.16796875 18.310546875  27.5 16.6927083333333  27.5 15  C 27.5 13.3072916666667  27.16796875 11.689453125  26.50390625 10.146484375  C 25.83984375 8.603515625  24.951171875 7.275390625  23.837890625 6.162109375  C 22.724609375 5.048828125  21.396484375 4.16015625  19.853515625 3.49609375  C 18.310546875 2.83203125  16.6927083333333 2.5  15 2.5  C 13.3072916666667 2.5  11.689453125 2.83203125  10.146484375 3.49609375  C 8.603515625 4.16015625  7.275390625 5.048828125  6.162109375 6.162109375  C 5.048828125 7.275390625  4.16015625 8.603515625  3.49609375 10.146484375  C 2.83203125 11.689453125  2.5 13.3072916666667  2.5 15  C 2.5 16.6927083333333  2.83203125 18.310546875  3.49609375 19.853515625  C 4.16015625 21.396484375  5.048828125 22.724609375  6.162109375 23.837890625  C 7.275390625 24.951171875  8.603515625 25.83984375  10.146484375 26.50390625  C 11.689453125 27.16796875  13.3072916666667 27.5  15 27.5  C 16.6927083333333 27.5  18.310546875 27.16796875  19.853515625 26.50390625  C 21.396484375 25.83984375  22.724609375 24.951171875  23.837890625 23.837890625  C 24.951171875 22.724609375  25.83984375 21.396484375  26.50390625 19.853515625  Z M 27.98828125 7.470703125  C 29.3294270833333 9.76888020833333  30 12.2786458333333  30 15  C 30 17.7213541666667  29.3294270833333 20.2311197916667  27.98828125 22.529296875  C 26.6471354166667 24.8274739583333  24.8274739583333 26.6471354166667  22.529296875 27.98828125  C 20.2311197916667 29.3294270833333  17.7213541666667 30  15 30  C 12.2786458333333 30  9.76888020833333 29.3294270833333  7.470703125 27.98828125  C 5.17252604166667 26.6471354166667  3.35286458333333 24.8274739583333  2.01171875 22.529296875  C 0.670572916666667 20.2311197916667  0 17.7213541666667  0 15  C 0 12.2786458333333  0.670572916666667 9.76888020833333  2.01171875 7.470703125  C 3.35286458333333 5.17252604166667  5.17252604166667 3.35286458333333  7.470703125 2.01171875  C 9.76888020833333 0.670572916666664  12.2786458333333 0  15 0  C 17.7213541666667 0  20.2311197916667 0.670572916666664  22.529296875 2.01171875  C 24.8274739583333 3.35286458333333  26.6471354166667 5.17252604166667  27.98828125 7.470703125  Z " fill-rule="nonzero" fill="#2fbefc" stroke="none" fill-opacity="0.43921568627451" transform="matrix(1 0 0 1 18 287 )" />
  </g>
</svg>