<?xml version="1.0" encoding="utf-8"?>
<svg version="1.1" xmlns:xlink="http://www.w3.org/1999/xlink" width="30px" height="30px" xmlns="http://www.w3.org/2000/svg">
  <g transform="matrix(1 0 0 1 -426 -206 )">
    <path d="M 27.734375 4.52008928571429  C 29.2447916666667 6.07142857142857  30 7.77901785714285  30 9.64285714285714  C 30 12.109375  28.7196180555556 14.2550223214286  26.1588541666667 16.0797991071429  C 23.5980902777778 17.9045758928571  20.4340277777778 18.9508928571429  16.6666666666667 19.21875  L 16.6666666666667 23.5714285714286  L 22.5 23.5714285714286  C 22.7430555555556 23.5714285714286  22.9427083333333 23.6216517857143  23.0989583333333 23.7220982142857  C 23.2552083333333 23.8225446428571  23.3333333333333 23.9508928571429  23.3333333333333 24.1071428571429  L 23.3333333333333 25.1785714285714  C 23.3333333333333 25.3348214285714  23.2552083333333 25.4631696428571  23.0989583333333 25.5636160714286  C 22.9427083333333 25.6640625  22.7430555555556 25.7142857142857  22.5 25.7142857142857  L 16.6666666666667 25.7142857142857  L 16.6666666666667 29.4642857142857  C 16.6666666666667 29.6205357142857  16.5885416666667 29.7488839285714  16.4322916666667 29.8493303571429  C 16.2760416666667 29.9497767857143  16.0763888888889 30  15.8333333333333 30  L 14.1666666666667 30  C 13.9236111111111 30  13.7239583333333 29.9497767857143  13.5677083333333 29.8493303571429  C 13.4114583333333 29.7488839285714  13.3333333333333 29.6205357142857  13.3333333333333 29.4642857142857  L 13.3333333333333 25.7142857142857  L 7.5 25.7142857142857  C 7.25694444444444 25.7142857142857  7.05729166666667 25.6640625  6.90104166666667 25.5636160714286  C 6.74479166666667 25.4631696428571  6.66666666666667 25.3348214285714  6.66666666666667 25.1785714285714  L 6.66666666666667 24.1071428571429  C 6.66666666666667 23.9508928571429  6.74479166666667 23.8225446428571  6.90104166666667 23.7220982142857  C 7.05729166666667 23.6216517857143  7.25694444444444 23.5714285714286  7.5 23.5714285714286  L 13.3333333333333 23.5714285714286  L 13.3333333333333 19.21875  C 10.7291666666667 19.0401785714286  8.37239583333333 18.4654017857143  6.26302083333333 17.4944196428571  C 4.15364583333333 16.5234375  2.5390625 15.2734375  1.41927083333333 13.7444196428571  C 0.299479166666667 12.2154017857143  -0.15625 10.5859375  0.0520833333333333 8.85602678571429  C 0.243055555555556 7.36049107142857  0.941840277777778 5.97098214285714  2.1484375 4.6875  C 3.35503472222222 3.40401785714286  4.93489583333333 2.35491071428571  6.88802083333333 1.54017857142857  C 8.84114583333333 0.725446428571427  10.9722222222222 0.234375  13.28125 0.0669642857142871  C 16.2326388888889 -0.145089285714293  19.0017361111111 0.156249999999994  21.5885416666667 0.970982142857142  C 24.1753472222222 1.78571428571428  26.2239583333333 2.96875  27.734375 4.52008928571429  Z M 6.7578125 4.34430803571429  C 4.47482638888889 5.81194196428571  3.33333333333333 7.578125  3.33333333333333 9.64285714285714  C 3.33333333333333 11.7075892857143  4.47482638888889 13.4737723214286  6.7578125 14.94140625  C 9.04079861111111 16.4090401785714  11.7881944444444 17.1428571428571  15 17.1428571428571  C 18.2118055555556 17.1428571428571  20.9592013888889 16.4090401785714  23.2421875 14.94140625  C 25.5251736111111 13.4737723214286  26.6666666666667 11.7075892857143  26.6666666666667 9.64285714285714  C 26.6666666666667 7.578125  25.5251736111111 5.81194196428571  23.2421875 4.34430803571429  C 20.9592013888889 2.87667410714286  18.2118055555556 2.14285714285714  15 2.14285714285714  C 11.7881944444444 2.14285714285714  9.04079861111111 2.87667410714286  6.7578125 4.34430803571429  Z " fill-rule="nonzero" fill="#fefefe" stroke="none" fill-opacity="0.996078431372549" transform="matrix(1 0 0 1 426 206 )" />
  </g>
</svg>