<?xml version="1.0" encoding="utf-8"?>
<svg version="1.1" xmlns:xlink="http://www.w3.org/1999/xlink" width="30px" height="30px" xmlns="http://www.w3.org/2000/svg">
  <g transform="matrix(1 0 0 1 -442 -206 )">
    <path d="M 20.625 0  L 28.75 0  C 29.0885416666667 0  29.3815104166667 0.123697916666665  29.62890625 0.371093749999999  C 29.8763020833333 0.618489583333329  30 0.911458333333329  30 1.25  L 30 9.375  C 30 9.55729166666666  29.94140625 9.70703125  29.82421875 9.82421875  C 29.70703125 9.94140625  29.5572916666667 10  29.375 10  L 28.125 10  C 27.9427083333333 10  27.79296875 9.94140625  27.67578125 9.82421875  C 27.55859375 9.70703125  27.5 9.55729166666666  27.5 9.375  L 27.5 4.2578125  L 20.0390625 11.73828125  C 21.6796875 13.76953125  22.5 16.1067708333333  22.5 18.75  C 22.5 20.2734375  22.2037760416667 21.728515625  21.611328125 23.115234375  C 21.0188802083333 24.501953125  20.2180989583333 25.6998697916667  19.208984375 26.708984375  C 18.1998697916667 27.7180989583333  17.001953125 28.5188802083333  15.615234375 29.111328125  C 14.228515625 29.7037760416667  12.7734375 30  11.25 30  C 9.7265625 30  8.271484375 29.7037760416667  6.884765625 29.111328125  C 5.498046875 28.5188802083333  4.30013020833333 27.7180989583333  3.291015625 26.708984375  C 2.28190104166667 25.6998697916667  1.48111979166667 24.501953125  0.888671875 23.115234375  C 0.296223958333333 21.728515625  0 20.2734375  0 18.75  C 0 17.2265625  0.296223958333333 15.771484375  0.888671875 14.384765625  C 1.48111979166667 12.998046875  2.28190104166667 11.8001302083333  3.291015625 10.791015625  C 4.30013020833333 9.78190104166666  5.498046875 8.98111979166667  6.884765625 8.388671875  C 8.271484375 7.79622395833333  9.7265625 7.5  11.25 7.5  C 13.8932291666667 7.5  16.23046875 8.3203125  18.26171875 9.9609375  L 25.72265625 2.5  L 20.625 2.5  C 20.4427083333333 2.5  20.29296875 2.44140625  20.17578125 2.32421875  C 20.05859375 2.20703125  20 2.05729166666667  20 1.875  L 20 0.625000000000001  C 20 0.442708333333329  20.05859375 0.29296875  20.17578125 0.17578125  C 20.29296875 0.05859375  20.4427083333333 0  20.625 0  Z M 5.068359375 24.931640625  C 6.78059895833333 26.6438802083333  8.84114583333333 27.5  11.25 27.5  C 13.6588541666667 27.5  15.7194010416667 26.6438802083333  17.431640625 24.931640625  C 19.1438802083333 23.2194010416667  20 21.1588541666667  20 18.75  C 20 16.3411458333333  19.1438802083333 14.2805989583333  17.431640625 12.568359375  C 15.7194010416667 10.8561197916667  13.6588541666667 10  11.25 10  C 8.84114583333333 10  6.78059895833333 10.8561197916667  5.068359375 12.568359375  C 3.35611979166667 14.2805989583333  2.5 16.3411458333333  2.5 18.75  C 2.5 21.1588541666667  3.35611979166667 23.2194010416667  5.068359375 24.931640625  Z " fill-rule="nonzero" fill="#fefefe" stroke="none" fill-opacity="0.996078431372549" transform="matrix(1 0 0 1 442 206 )" />
  </g>
</svg>